<svg xmlns="http://www.w3.org/2000/svg" width="524" height="92" viewBox="0 0 524 92"><path d="M23.957 45.44h3.686l5.582 36.118h-3.58c-1.686 0-2.828-.386-3.423-1.158-.597-.772-1-1.966-1.21-3.58l-.633-4.107H10.9L5.106 81.56H1l22.957-36.12zM13.005 69.343h10.952l-2-13.796-8.952 13.796zm30.96-20.956h7.37l-6.844 33.17h-7.37l6.85-33.17zm27.17 0c3.437 0 6.106.895 8.002 2.686 1.896 1.79 2.668 4.23 2.317 7.318-.28 2.67-1.422 4.76-3.422 6.27-2 1.51-4.125 2.44-6.37 2.79l8.318 14.11h-3.896c-2.038 0-3.406-.24-4.107-.73-.702-.49-1.474-1.47-2.317-2.94L63.763 66.4c3.72-.42 6.3-1.456 7.74-3.106 1.438-1.65 2.228-3.352 2.37-5.107.21-2.035-.158-3.668-1.106-4.896s-2.475-1.84-4.58-1.84H65.87l-6.11 30.12h-7.37l6.213-30.33-1.473-2.84h14zm55.81 0h3.896L124 81.557c-1.755 0-3.02-.314-3.79-.946-.774-.63-1.476-1.54-2.107-2.73l-11.48-20.64-5.054 24.33h-3.79l6-29.27-2-3.89h4.63c1.61 0 2.74.25 3.37.74.63.49 1.33 1.44 2.1 2.84l10.32 19.37 4.74-22.95zm10.742 0h21.482c-.22 1.123-.6 1.948-1.16 2.475-.57.526-1.55.79-2.95.79h-10.74l-2.22 11.162h11.58l-.63 3.265h-11.58l-2.53 12.21h11.27c1.33 0 2.28.26 2.84.79.56.52.98 1.35 1.26 2.47h-23.48l6.84-33.18zm63.394 0h3.9l-18.32 33.17h-3.47l-2.53-19.797-10.53 19.8h-3.58l-4.63-33.17h5.27c.49 0 .91.108 1.26.318.35.21.56.563.63 1.055l2.95 21.8 8-15.27-1.05-7.898h5.06c.49 0 .91.105 1.27.315.35.21.56.597.63 1.16l2.53 21.692 12.64-23.17zm46.55 0c-.14.912-.42 1.843-.84 2.79-.42.948-1.3 2.194-2.63 3.738l-20.85 23.38h14.32c1.33 0 2.28.263 2.85.79.56.525.95 1.35 1.16 2.474h-28.12c.07-1.41.39-2.53.95-3.37.56-.85 1.3-1.79 2.21-2.85l21.69-23.69h-13.69c-1.33 0-2.28-.27-2.84-.79-.56-.53-.98-1.35-1.26-2.48h27.07zm23.17 3.263h-10.74l-2.31 11.167h11.69l-.63 3.265h-11.59l-2.53 12.214h11.27c1.34 0 2.28.264 2.85.79s.95 1.352 1.16 2.475H246.6l6.846-33.17h21.48c-.21 1.13-.614 1.95-1.21 2.48s-1.56.79-2.896.79zm21.59-3.26h3.69l6.85 33.17h-3.47c-1.76 0-2.91-.384-3.48-1.156s-1.01-1.964-1.36-3.58l-.84-4.105h-12.32l-5.47 8.84h-4.11l20.53-33.17zm.64 20.957L290.7 57.76l-7.16 11.583h9.476zm30.12 8.95c1.34 0 2.3.264 2.9.79.6.526 1 1.352 1.21 2.475h-20.43l6.85-33.172h7.37l-6.1 29.906h8.21zm26.43-29.907h3.69l6.95 33.17h-3.58c-1.68 0-2.82-.384-3.42-1.156s-1.07-1.964-1.42-3.58l-.84-4.105h-12.32l-5.37 8.84h-4.21l20.54-33.17zm.74 20.957l-2.43-11.587-7.16 11.583h9.59zm38.33 2l4.74-22.956h3.9l-6.84 33.17c-1.75 0-3.03-.31-3.84-.94-.8-.63-1.52-1.54-2.15-2.73l-11.38-20.64L368 81.57h-3.79l6-29.277-2-3.89h4.634c1.544 0 2.65.247 3.316.74.665.49 1.35 1.436 2.052 2.84l10.428 19.37zM415.5 48.39c4.843 0 8.74 1.472 11.687 4.42 2.95 2.95 4.04 7.024 3.267 12.218-.77 5.194-3.21 9.25-7.32 12.162-4.104 2.912-8.65 4.37-13.635 4.37h-11.17l6.21-30.33-1.48-2.843h12.42zm7.37 16.635c.562-4.212.07-7.512-1.475-9.898-1.545-2.387-4.037-3.58-7.48-3.58h-2.11l-5.58 26.958h2.106c3.44 0 6.57-1.176 9.38-3.527 2.81-2.354 4.53-5.67 5.16-9.954zm28.01 8.004c-2.667-6.04-5.79-14.26-9.37-24.65h76.24l-3.476 8.32h-60.56c.983 3.86 2.634 8.42 4.95 13.69 1.896 4.49 4.125 7.47 6.687 8.95 2.56 1.47 4.79 2.21 6.69 2.21 2.39 0 4.14-.67 5.27-2 1.12-1.34 1.68-2.67 1.68-4 0-1.41-.53-2.7-1.58-3.9-1.06 2.94-2.85 4.42-5.37 4.42-1.62 0-2.97-.65-4.06-1.95-1.09-1.3-1.63-2.76-1.63-4.37 0-.7.53-2.06 1.58-4.06 1.06-2 3.3-3 6.74-3 3.23 0 6 1.18 8.32 3.53 2.32 2.35 3.48 5.46 3.48 9.32 0 3.37-1.32 6.53-3.95 9.48-2.63 2.94-6.12 4.42-10.48 4.42-4.56 0-8.67-1.46-12.32-4.37-3.65-2.92-6.6-6.93-8.84-12.06zm10.215-37.49H523l-3.475 8.42h-76.663c2.247-2.95 4.476-5.78 6.687-8.48 2.21-2.7 4.95-5.93 8.21-9.69 3.26-3.76 7.07-7.95 11.42-12.59 2.38-2.53 5.58-5.2 9.58-8.01s8.32-4.2 12.95-4.2c4.98 0 8.93 1.54 11.84 4.63s4.37 6.39 4.37 9.9c0 3.51-1.11 6.75-3.32 9.74-2.21 2.98-5.64 4.47-10.27 4.47-2.46 0-4.56-.81-6.32-2.42-1.76-1.62-2.64-3.69-2.64-6.22 0-1.2.47-2.49 1.42-3.9.95-1.41 2.51-2.11 4.69-2.11 2.11 0 3.49.86 4.16 2.58.67 1.72.89 3.035.68 3.946 2.103-1.47 3.16-3.22 3.16-5.26 0-2.03-.758-3.74-2.267-5.1-1.51-1.37-3.353-2.05-5.53-2.05-3.37 0-6.545 1.196-9.53 3.58-2.98 2.39-5.105 4.25-6.37 5.58-5.055 5.12-9.97 10.84-14.744 17.16z"/></svg>