<svg width="368" height="86" viewBox="0 0 184 43" fill="none" xmlns="http://www.w3.org/2000/svg">
<path d="M23.2142 0L17.6306 16.4007L23.3229 39.8576L28.9065 23.4782" fill="#F08125"/>
<path d="M46.4396 0L40.856 16.4007L46.5482 39.8576L52.1318 23.4782" fill="#F08125"/>
<path d="M40.8559 16.4007L37.3036 1.74543C37.0526 0.721986 36.1185 0.0003783 35.0441 0H23.2251L32.4913 38.1121C32.738 39.1398 33.6733 39.8667 34.7508 39.8682H46.5481" fill="#E73629"/>
<path d="M64.0811 16.4007L60.5289 1.74543C60.2779 0.721986 59.3437 0.0003783 58.2694 0H46.4395L56.1076 39.8682H69.7734" fill="#B82A28"/>
<path d="M17.6308 16.4007L13.6549 0H0L9.24447 38.1121C9.4912 39.1398 10.4264 39.8667 11.504 39.8682H23.323" fill="#FAB31E"/>
<path d="M183.016 33.4245C182.106 34.2692 180.771 34.5049 179.618 34.0245C178.464 33.5441 177.711 32.4391 177.7 31.2109C177.678 30.3557 178.037 29.5334 178.683 28.9583C179.267 28.414 180.044 28.1149 180.85 28.125C182.589 28.125 183.999 29.5066 183.999 31.2109C184.017 32.046 183.674 32.8495 183.056 33.4245H183.016ZM178.949 29.4141C177.962 30.4218 177.962 32.0131 178.949 33.0208C179.434 33.5011 180.094 33.7715 180.783 33.7715C181.472 33.7715 182.133 33.5011 182.617 33.0208C183.605 32.0131 183.605 30.4218 182.617 29.4141C182.134 28.9223 181.467 28.6445 180.77 28.6445C180.073 28.6445 179.406 28.9223 178.923 29.4141H178.949ZM179.388 32.9167V29.5052H181.115C181.356 29.5124 181.591 29.5702 181.807 29.6745C182.114 29.8335 182.296 30.1552 182.272 30.4948C182.292 30.7304 182.199 30.9617 182.019 31.1198C181.843 31.2541 181.63 31.3356 181.408 31.3542C181.585 31.382 181.753 31.4487 181.9 31.5495C182.117 31.7456 182.23 32.0291 182.205 32.3177V32.6823V32.7865V32.8776H181.328C181.313 32.7217 181.313 32.5648 181.328 32.4089C181.347 32.2706 181.347 32.1305 181.328 31.9922C181.285 31.8774 181.193 31.787 181.076 31.7448C180.97 31.7293 180.862 31.7293 180.757 31.7448H180.358V32.9557L179.388 32.9167ZM181.062 30.1693C180.909 30.1142 180.747 30.0835 180.584 30.0781H180.358V31.0677H180.717C180.895 31.0773 181.072 31.0317 181.222 30.9375C181.349 30.842 181.419 30.6904 181.408 30.5339C181.416 30.3567 181.302 30.1963 181.129 30.1432L181.062 30.1693Z" fill="#646567"/>
<path fill-rule="evenodd" clip-rule="evenodd" d="M88.5458 12.8882L86.6689 20.6353H86.6384L84.6815 12.8882H82.3245L80.3356 20.5382H80.3036L78.4908 12.8882H75.9738L79.0058 24.1289H81.5549L83.4637 16.4775H83.4928L85.4366 24.1289H87.9362L91.0163 12.8882H88.5458Z" fill="#656464"/>
<path fill-rule="evenodd" clip-rule="evenodd" d="M96.1391 20.3425C95.9936 20.3897 95.8393 20.4282 95.6749 20.4625C95.5076 20.4925 95.3345 20.5196 95.1526 20.5382C94.9693 20.5596 94.7889 20.5853 94.6085 20.6196C94.4368 20.6496 94.268 20.691 94.1022 20.7439C93.9363 20.7967 93.7923 20.8667 93.67 20.9567C93.5449 21.0452 93.4474 21.1595 93.3718 21.2952C93.2976 21.4309 93.2598 21.6037 93.2598 21.8151C93.2598 22.0136 93.2976 22.1822 93.3718 22.3179C93.4474 22.4536 93.5493 22.5607 93.6759 22.6392C93.8068 22.7192 93.9537 22.7735 94.1269 22.8063C94.2957 22.8363 94.4732 22.8535 94.655 22.8535C95.1031 22.8535 95.4509 22.7792 95.6997 22.635C95.9441 22.485 96.1245 22.3093 96.2438 22.105C96.3602 21.9022 96.4315 21.6937 96.4591 21.4852C96.4853 21.2738 96.4984 21.1052 96.4984 20.9795V20.1454C96.4024 20.2283 96.2831 20.294 96.1391 20.3425ZM91.6404 17.1874C91.8747 16.8417 92.1744 16.5604 92.5367 16.3533C92.9018 16.1433 93.3107 15.9905 93.7661 15.9019C94.22 15.8148 94.6769 15.7705 95.1352 15.7705C95.5542 15.7705 95.9761 15.8005 96.4024 15.8576C96.8301 15.9148 97.2201 16.0276 97.5751 16.1947C97.9257 16.3604 98.2167 16.5961 98.4393 16.896C98.6648 17.1945 98.7783 17.5873 98.7783 18.0815V22.3179C98.7783 22.6849 98.7987 23.0363 98.8423 23.3734C98.8845 23.709 98.9572 23.959 99.0664 24.129H96.7559C96.7123 24.0033 96.6788 23.8733 96.6526 23.7433C96.625 23.6133 96.6061 23.4791 96.5959 23.3434C96.2336 23.709 95.8044 23.9647 95.3127 24.1118C94.8223 24.2589 94.3189 24.3332 93.8068 24.3332C93.4096 24.3332 93.0401 24.2861 92.6996 24.1918C92.3562 24.099 92.058 23.9504 91.8019 23.7505C91.5458 23.5519 91.3451 23.2991 91.1996 22.9963C91.0555 22.6907 90.9828 22.3293 90.9828 21.9094C90.9828 21.448 91.0657 21.0681 91.2316 20.7696C91.3989 20.4682 91.6099 20.2283 91.8732 20.0497C92.1365 19.8726 92.4348 19.7398 92.7723 19.6498C93.1084 19.5612 93.4474 19.4898 93.7893 19.437C94.1327 19.3841 94.4688 19.3398 94.8005 19.3127C95.1308 19.2799 95.4261 19.2313 95.6808 19.1699C95.9383 19.1056 96.1405 19.0156 96.2918 18.8942C96.4402 18.7728 96.5101 18.5986 96.4984 18.3672C96.4984 18.1258 96.4591 17.933 96.3777 17.7916C96.2991 17.6487 96.1914 17.5388 96.059 17.4616C95.9252 17.3831 95.7695 17.3316 95.5935 17.3031C95.4174 17.2788 95.2268 17.2631 95.0246 17.2631C94.575 17.2631 94.2229 17.3588 93.9668 17.5473C93.7093 17.7359 93.5595 18.0529 93.5187 18.4914H91.2389C91.2723 17.9672 91.4047 17.533 91.6404 17.1874Z" fill="#656464"/>
<path fill-rule="evenodd" clip-rule="evenodd" d="M102.456 22.105C102.557 22.2779 102.689 22.4207 102.849 22.5307C103.011 22.6407 103.194 22.7206 103.402 22.7735C103.612 22.8263 103.827 22.8535 104.051 22.8535C104.212 22.8535 104.381 22.8335 104.557 22.7978C104.733 22.7621 104.895 22.7035 105.039 22.625C105.181 22.5464 105.302 22.4407 105.4 22.3107C105.494 22.1779 105.542 22.0136 105.542 21.8151C105.542 21.4795 105.315 21.2266 104.861 21.0581C104.407 20.891 103.775 20.7239 102.96 20.5553C102.63 20.4811 102.305 20.3954 101.991 20.294C101.675 20.194 101.394 20.064 101.15 19.9026C100.904 19.7398 100.706 19.5341 100.556 19.2884C100.406 19.0399 100.332 18.7385 100.332 18.3815C100.332 17.8558 100.435 17.4288 100.644 17.0917C100.852 16.7546 101.128 16.4904 101.47 16.2976C101.813 16.1019 102.196 15.9662 102.625 15.8876C103.053 15.8076 103.491 15.7705 103.94 15.7705C104.389 15.7705 104.824 15.8105 105.247 15.8948C105.67 15.9805 106.046 16.1219 106.377 16.3204C106.708 16.5189 106.983 16.786 107.202 17.1145C107.422 17.4459 107.553 17.8615 107.597 18.3672H105.432C105.4 17.9358 105.234 17.6459 104.934 17.4945C104.634 17.3402 104.281 17.2645 103.875 17.2645C103.747 17.2645 103.61 17.2731 103.459 17.2888C103.308 17.3045 103.174 17.3374 103.049 17.3902C102.928 17.4445 102.823 17.5202 102.736 17.6173C102.651 17.7201 102.608 17.853 102.608 18.0215C102.608 18.2186 102.683 18.3815 102.833 18.5086C102.983 18.6343 103.178 18.7371 103.418 18.8157C103.658 18.8942 103.935 18.9671 104.244 19.027C104.554 19.0899 104.87 19.157 105.19 19.2313C105.522 19.307 105.845 19.3956 106.161 19.4998C106.476 19.6041 106.757 19.7441 107.003 19.9169C107.249 20.0897 107.447 20.3054 107.597 20.5639C107.745 20.821 107.821 21.1381 107.821 21.5152C107.821 22.0508 107.71 22.4978 107.492 22.8621C107.272 23.2234 106.986 23.5162 106.635 23.7362C106.281 23.9561 105.878 24.1104 105.423 24.1975C104.968 24.2889 104.506 24.3332 104.036 24.3332C103.555 24.3332 103.085 24.2861 102.625 24.1918C102.165 24.0961 101.757 23.9404 101.399 23.719C101.041 23.4991 100.747 23.2077 100.516 22.8463C100.286 22.4836 100.159 22.0308 100.14 21.4852H102.304C102.304 21.7251 102.355 21.9322 102.456 22.105Z" fill="#656464"/>
<path fill-rule="evenodd" clip-rule="evenodd" d="M113.706 15.9891V17.4845H112.039V21.5152C112.039 21.8937 112.101 22.1465 112.229 22.2722C112.359 22.395 112.615 22.4593 112.999 22.4593C113.127 22.4593 113.25 22.4536 113.368 22.4436C113.486 22.4336 113.598 22.4179 113.706 22.395V24.129C113.512 24.1604 113.3 24.1804 113.064 24.1919C112.827 24.2004 112.599 24.2061 112.375 24.2061C112.021 24.2061 111.686 24.1819 111.372 24.1362C111.056 24.089 110.779 23.9962 110.539 23.8605C110.297 23.7234 110.108 23.5306 109.968 23.2763C109.83 23.0278 109.762 22.6964 109.762 22.2879V17.4845H108.381V15.9891H109.762V13.5496H112.039V15.9891H113.706Z" fill="#656464"/>
<path fill-rule="evenodd" clip-rule="evenodd" d="M119.806 17.8958C119.534 17.6016 119.12 17.4531 118.564 17.4531C118.2 17.4531 117.899 17.5145 117.659 17.6344C117.417 17.7544 117.224 17.903 117.08 18.0815C116.937 18.2643 116.834 18.45 116.777 18.6514C116.716 18.8485 116.681 19.0299 116.671 19.1856H120.375C120.269 18.6171 120.078 18.1872 119.806 17.8958ZM117.233 22.1765C117.576 22.4993 118.068 22.6649 118.709 22.6649C119.166 22.6649 119.563 22.5535 119.894 22.3264C120.225 22.1022 120.429 21.8622 120.503 21.6094H122.508C122.188 22.5864 121.696 23.2834 121.033 23.7033C120.369 24.1218 119.568 24.3332 118.628 24.3332C117.977 24.3332 117.387 24.2289 116.863 24.0275C116.341 23.8219 115.895 23.5305 115.533 23.1534C115.168 22.7735 114.889 22.3236 114.691 21.798C114.494 21.2738 114.395 20.6953 114.395 20.0683C114.395 19.4584 114.496 18.8914 114.701 18.3686C114.903 17.8416 115.191 17.3874 115.567 17.006C115.939 16.6232 116.386 16.319 116.905 16.099C117.423 15.8776 117.998 15.7705 118.628 15.7705C119.333 15.7705 119.947 15.9033 120.473 16.1704C120.995 16.439 121.427 16.7989 121.763 17.2488C122.099 17.6987 122.344 18.2158 122.492 18.7928C122.642 19.3684 122.696 19.9726 122.652 20.5996H116.671C116.704 21.3266 116.891 21.8508 117.233 22.1765Z" fill="#656464"/>
<path fill-rule="evenodd" clip-rule="evenodd" d="M80.8036 28.6897L83.4807 36.4225H83.5127L86.0471 28.6897H89.5913V39.9319H87.2344V31.9662H87.2024L84.3958 39.9319H82.4549L79.6498 32.0462H79.6164V39.9319H77.2594V28.6897H80.8036Z" fill="#656464"/>
<path fill-rule="evenodd" clip-rule="evenodd" d="M96.3655 36.1455C96.2214 36.1926 96.0672 36.2312 95.9014 36.2655C95.7355 36.2955 95.5624 36.3226 95.379 36.3412C95.1972 36.3626 95.0168 36.3883 94.8349 36.4226C94.6632 36.4526 94.4944 36.494 94.33 36.5469C94.1627 36.5997 94.0187 36.6697 93.8965 36.7597C93.7728 36.8482 93.6753 36.9625 93.5997 37.0982C93.524 37.2339 93.4862 37.4067 93.4862 37.6181C93.4862 37.8166 93.524 37.9852 93.5997 38.1208C93.6753 38.2565 93.7772 38.3637 93.9037 38.4422C94.0318 38.5222 94.1831 38.5765 94.3533 38.6093C94.5235 38.6393 94.6996 38.6565 94.8815 38.6565C95.3325 38.6565 95.6788 38.5822 95.9261 38.4379C96.1705 38.288 96.3509 38.1123 96.4702 37.908C96.5881 37.7052 96.6579 37.4967 96.6856 37.2881C96.7132 37.0768 96.7263 36.9082 96.7263 36.7825V35.9484C96.6288 36.0312 96.511 36.0969 96.3655 36.1455ZM91.8669 32.9904C92.1011 32.6447 92.4008 32.3633 92.766 32.1562C93.1297 31.9463 93.5386 31.7934 93.994 31.7049C94.4479 31.6178 94.9033 31.5735 95.363 31.5735C95.7821 31.5735 96.204 31.6035 96.6288 31.6606C97.0595 31.7177 97.4479 31.8306 97.8015 31.9977C98.1536 32.1634 98.4417 32.399 98.6672 32.699C98.8912 32.9975 99.0033 33.3903 99.0033 33.8845V38.1208C99.0033 38.4879 99.0251 38.8393 99.0673 39.1764C99.1095 39.512 99.1851 39.762 99.2928 39.9319H96.9838C96.9402 39.8062 96.9067 39.6763 96.8791 39.5463C96.8529 39.4163 96.834 39.2821 96.8223 39.1464C96.4586 39.512 96.0323 39.7677 95.542 39.9148C95.0502 40.0619 94.5468 40.1362 94.0318 40.1362C93.6375 40.1362 93.2679 40.0891 92.926 39.9948C92.5841 39.9019 92.2859 39.7534 92.0298 39.5534C91.7737 39.3549 91.5715 39.1021 91.426 38.7993C91.2834 38.4936 91.2092 38.1323 91.2092 37.7124C91.2092 37.251 91.2936 36.8711 91.458 36.5726C91.6239 36.2712 91.8378 36.0312 92.1011 35.8527C92.363 35.6756 92.6627 35.5428 92.9988 35.4528C93.3349 35.3642 93.6753 35.2928 94.0158 35.24C94.3591 35.1871 94.6952 35.1428 95.0269 35.1157C95.3587 35.0828 95.6511 35.0343 95.9101 34.9729C96.1662 34.9086 96.3669 34.8186 96.5182 34.6972C96.6681 34.5758 96.7379 34.4015 96.7263 34.1701C96.7263 33.9288 96.6856 33.7359 96.6055 33.5945C96.5255 33.4517 96.4193 33.3417 96.2855 33.2646C96.1516 33.186 95.9974 33.1346 95.8199 33.1061C95.6438 33.0818 95.4547 33.0661 95.251 33.0661C94.8014 33.0661 94.4493 33.1618 94.1933 33.3503C93.9372 33.5388 93.7888 33.8559 93.7423 34.2944H91.4653C91.4988 33.7702 91.6312 33.336 91.8669 32.9904Z" fill="#656464"/>
<path fill-rule="evenodd" clip-rule="evenodd" d="M102.933 31.792V32.9261H102.978C103.268 32.4533 103.643 32.1091 104.104 31.8949C104.563 31.6792 105.031 31.5735 105.515 31.5735C106.124 31.5735 106.623 31.6549 107.011 31.8163C107.401 31.9791 107.711 32.2034 107.936 32.4933C108.159 32.7818 108.316 33.1346 108.408 33.5474C108.498 33.963 108.545 34.4201 108.545 34.9257V39.9319H106.268V35.3342C106.268 34.6643 106.161 34.163 105.945 33.8302C105.732 33.5003 105.353 33.3332 104.807 33.3332C104.187 33.3332 103.739 33.5174 103.46 33.8788C103.182 34.2416 103.045 34.8357 103.045 35.6656V39.9319H100.768V31.792H102.933Z" fill="#656464"/>
<path fill-rule="evenodd" clip-rule="evenodd" d="M115.079 36.1455C114.933 36.1926 114.78 36.2312 114.615 36.2655C114.447 36.2955 114.274 36.3226 114.092 36.3412C113.91 36.3626 113.728 36.3883 113.55 36.4226C113.375 36.4526 113.206 36.494 113.042 36.5469C112.876 36.5997 112.732 36.6697 112.608 36.7597C112.484 36.8482 112.387 36.9625 112.311 37.0982C112.237 37.2339 112.199 37.4067 112.199 37.6181C112.199 37.8166 112.237 37.9852 112.311 38.1208C112.387 38.2565 112.49 38.3637 112.615 38.4422C112.745 38.5222 112.893 38.5765 113.066 38.6093C113.237 38.6393 113.413 38.6565 113.595 38.6565C114.044 38.6565 114.392 38.5822 114.638 38.4379C114.884 38.288 115.067 38.1123 115.183 37.908C115.298 37.7052 115.371 37.4967 115.399 37.2881C115.425 37.0768 115.439 36.9082 115.439 36.7825V35.9484C115.342 36.0312 115.223 36.0969 115.079 36.1455ZM110.58 32.9904C110.817 32.6447 111.114 32.3633 111.479 32.1562C111.841 31.9463 112.25 31.7934 112.704 31.7049C113.16 31.6178 113.616 31.5735 114.076 31.5735C114.494 31.5735 114.917 31.6035 115.342 31.6606C115.77 31.7177 116.161 31.8306 116.515 31.9977C116.865 32.1634 117.156 32.399 117.38 32.699C117.603 32.9975 117.716 33.3903 117.716 33.8845V38.1208C117.716 38.4879 117.737 38.8393 117.78 39.1764C117.823 39.512 117.897 39.762 118.006 39.9319H115.697C115.652 39.8062 115.618 39.6763 115.592 39.5463C115.566 39.4163 115.546 39.2821 115.537 39.1464C115.173 39.512 114.744 39.7677 114.252 39.9148C113.76 40.0619 113.257 40.1362 112.745 40.1362C112.349 40.1362 111.981 40.0891 111.639 39.9948C111.297 39.9019 110.996 39.7534 110.74 39.5534C110.485 39.3549 110.283 39.1021 110.139 38.7993C109.997 38.4936 109.922 38.1323 109.922 37.7124C109.922 37.251 110.005 36.8711 110.171 36.5726C110.338 36.2712 110.551 36.0312 110.813 35.8527C111.075 35.6756 111.373 35.5428 111.71 35.4528C112.047 35.3642 112.387 35.2928 112.729 35.24C113.072 35.1871 113.408 35.1428 113.739 35.1157C114.069 35.0828 114.364 35.0343 114.619 34.9729C114.878 34.9086 115.082 34.8186 115.231 34.6972C115.38 34.5758 115.451 34.4015 115.439 34.1701C115.439 33.9288 115.399 33.7359 115.317 33.5945C115.239 33.4517 115.13 33.3417 115 33.2646C114.865 33.186 114.709 33.1346 114.533 33.1061C114.356 33.0818 114.166 33.0661 113.966 33.0661C113.515 33.0661 113.162 33.1618 112.906 33.3503C112.649 33.5388 112.5 33.8559 112.457 34.2944H110.18C110.21 33.7702 110.344 33.336 110.58 32.9904Z" fill="#656464"/>
<path fill-rule="evenodd" clip-rule="evenodd" d="M124.192 37.8209C124.44 37.6966 124.643 37.5281 124.803 37.3181C124.964 37.1082 125.084 36.8711 125.164 36.6011C125.244 36.334 125.285 36.0527 125.285 35.7584C125.285 35.4242 125.252 35.1071 125.189 34.8072C125.126 34.5101 125.017 34.243 124.866 34.013C124.719 33.7802 124.52 33.5974 124.274 33.4631C124.028 33.3246 123.717 33.256 123.344 33.256C123.021 33.256 122.748 33.3189 122.519 33.4446C122.289 33.5717 122.096 33.7445 121.943 33.9573C121.786 34.173 121.674 34.4187 121.604 34.6972C121.534 34.9743 121.499 35.2657 121.499 35.5699C121.499 35.8655 121.53 36.1569 121.59 36.444C121.646 36.734 121.75 36.9925 121.892 37.2224C122.038 37.4538 122.228 37.6438 122.461 37.7895C122.698 37.938 122.991 38.0094 123.344 38.0094C123.664 38.0094 123.949 37.948 124.192 37.8209ZM127.313 40.5304C127.222 40.9489 127.028 41.3402 126.728 41.7016C126.429 42.063 125.995 42.3729 125.431 42.6229C124.862 42.8742 124.102 42.9999 123.152 42.9999C122.745 42.9999 122.33 42.9499 121.91 42.8514C121.486 42.75 121.101 42.5972 120.754 42.3886C120.407 42.1758 120.12 41.9073 119.889 41.5759C119.659 41.2446 119.526 40.8489 119.496 40.3876H121.755C121.863 40.8061 122.071 41.0989 122.381 41.2617C122.692 41.4231 123.05 41.5045 123.458 41.5045C124.098 41.5045 124.565 41.316 124.857 40.9375C125.153 40.5618 125.297 40.0848 125.285 39.5063V38.4351H125.252C125.007 38.865 124.658 39.1835 124.203 39.3878C123.747 39.592 123.27 39.6963 122.767 39.6963C122.147 39.6963 121.613 39.5877 121.163 39.372C120.715 39.1564 120.346 38.8636 120.056 38.4908C119.768 38.118 119.556 37.6824 119.425 37.1839C119.289 36.6868 119.222 36.1584 119.222 35.6027C119.222 35.0771 119.301 34.5729 119.457 34.083C119.612 33.5945 119.838 33.1646 120.138 32.7918C120.436 32.4219 120.808 32.122 121.252 31.902C121.694 31.682 122.206 31.5735 122.784 31.5735C123.327 31.5735 123.807 31.672 124.219 31.872C124.632 32.0705 124.974 32.4062 125.252 32.879H125.285V31.792H127.45V39.412C127.45 39.7377 127.403 40.1105 127.313 40.5304Z" fill="#656464"/>
<path fill-rule="evenodd" clip-rule="evenodd" d="M134.288 33.6988C134.015 33.4046 133.601 33.256 133.046 33.256C132.68 33.256 132.379 33.3174 132.141 33.4374C131.898 33.5574 131.707 33.7059 131.563 33.8845C131.419 34.0673 131.317 34.253 131.257 34.4544C131.199 34.6515 131.164 34.8329 131.154 34.9886H134.858C134.751 34.4201 134.56 33.9902 134.288 33.6988ZM131.714 37.9794C132.058 38.3022 132.549 38.4679 133.19 38.4679C133.648 38.4679 134.045 38.3565 134.377 38.1294C134.709 37.9052 134.912 37.6652 134.984 37.4124H136.991C136.67 38.3894 136.178 39.0864 135.515 39.5063C134.854 39.9248 134.049 40.1362 133.108 40.1362C132.456 40.1362 131.87 40.0319 131.345 39.8305C130.821 39.6249 130.377 39.3335 130.015 38.9564C129.65 38.5765 129.37 38.1266 129.173 37.6009C128.976 37.0768 128.877 36.4983 128.877 35.8713C128.877 35.2614 128.978 34.6943 129.183 34.1716C129.384 33.6445 129.67 33.1903 130.048 32.809C130.421 32.4262 130.868 32.122 131.387 31.902C131.903 31.6806 132.48 31.5735 133.108 31.5735C133.817 31.5735 134.431 31.7063 134.954 31.9734C135.477 32.2419 135.907 32.6019 136.246 33.0518C136.581 33.5017 136.824 34.0187 136.977 34.5958C137.124 35.1714 137.176 35.7756 137.134 36.4026H131.154C131.188 37.1296 131.374 37.6538 131.714 37.9794Z" fill="#656464"/>
<path fill-rule="evenodd" clip-rule="evenodd" d="M140.696 31.792V32.8947H140.728C141.026 32.4776 141.388 32.1491 141.809 31.9191C142.232 31.6878 142.715 31.5735 143.262 31.5735C143.783 31.5735 144.262 31.672 144.694 31.872C145.129 32.0705 145.458 32.4233 145.682 32.9261C145.928 32.569 146.259 32.2548 146.683 31.982C147.108 31.7092 147.605 31.5735 148.184 31.5735C148.621 31.5735 149.028 31.6235 149.402 31.7292C149.776 31.8349 150.097 32.002 150.365 32.2319C150.63 32.4647 150.841 32.7647 150.988 33.1389C151.139 33.5131 151.215 33.9602 151.215 34.4829V39.9319H148.938V35.3185C148.938 35.0485 148.925 34.7886 148.906 34.5501C148.883 34.3073 148.826 34.0959 148.728 33.9188C148.631 33.7402 148.491 33.5974 148.303 33.4917C148.117 33.3874 147.861 33.3332 147.543 33.3332C147.22 33.3332 146.962 33.3974 146.763 33.5174C146.565 33.6374 146.412 33.7945 146.3 33.9873C146.187 34.1816 146.112 34.403 146.075 34.6486C146.035 34.8971 146.016 35.1442 146.016 35.3985V39.9319H143.741V35.3628C143.741 35.1228 143.735 34.8857 143.723 34.6486C143.713 34.413 143.668 34.1944 143.59 33.9959C143.511 33.7988 143.376 33.6374 143.188 33.5174C143 33.3974 142.727 33.3332 142.362 33.3332C142.255 33.3332 142.113 33.3603 141.937 33.4074C141.761 33.4531 141.589 33.5403 141.423 33.6745C141.259 33.8059 141.118 33.993 141 34.2416C140.88 34.4858 140.822 34.8086 140.822 35.2099V39.9319H138.544V31.792H140.696Z" fill="#656464"/>
<path fill-rule="evenodd" clip-rule="evenodd" d="M158.019 33.6988C157.747 33.4046 157.333 33.256 156.777 33.256C156.413 33.256 156.111 33.3174 155.873 33.4374C155.63 33.5574 155.438 33.7059 155.294 33.8845C155.15 34.0673 155.047 34.253 154.99 34.4544C154.929 34.6515 154.896 34.8329 154.885 34.9886H158.59C158.482 34.4201 158.294 33.9902 158.019 33.6988ZM155.447 37.9794C155.789 38.3022 156.281 38.4679 156.922 38.4679C157.382 38.4679 157.776 38.3565 158.108 38.1294C158.441 37.9052 158.642 37.6652 158.718 37.4124H160.723C160.403 38.3894 159.911 39.0864 159.247 39.5063C158.584 39.9248 157.782 40.1362 156.842 40.1362C156.191 40.1362 155.6 40.0319 155.078 39.8305C154.554 39.6249 154.11 39.3335 153.748 38.9564C153.383 38.5765 153.103 38.1266 152.905 37.6009C152.707 37.0768 152.609 36.4983 152.609 35.8713C152.609 35.2614 152.712 34.6943 152.913 34.1716C153.115 33.6445 153.406 33.1903 153.78 32.809C154.151 32.4262 154.599 32.122 155.118 31.902C155.636 31.6806 156.211 31.5735 156.842 31.5735C157.547 31.5735 158.162 31.7063 158.687 31.9734C159.209 32.2419 159.642 32.6019 159.978 33.0518C160.314 33.5017 160.557 34.0187 160.707 34.5958C160.858 35.1714 160.909 35.7756 160.867 36.4026H154.885C154.92 37.1296 155.107 37.6538 155.447 37.9794Z" fill="#656464"/>
<path fill-rule="evenodd" clip-rule="evenodd" d="M164.379 31.792V32.9261H164.427C164.715 32.4533 165.089 32.1091 165.549 31.8949C166.008 31.6792 166.478 31.5735 166.961 31.5735C167.57 31.5735 168.07 31.6549 168.458 31.8163C168.85 31.9791 169.16 32.2034 169.382 32.4933C169.606 32.7818 169.762 33.1346 169.855 33.5474C169.945 33.963 169.99 34.4201 169.99 34.9257V39.9319H167.715V35.3342C167.715 34.6643 167.607 34.163 167.392 33.8302C167.18 33.5003 166.8 33.3332 166.253 33.3332C165.634 33.3332 165.186 33.5174 164.907 33.8788C164.628 34.2416 164.491 34.8357 164.491 35.6656V39.9319H162.213V31.792H164.379Z" fill="#656464"/>
<path fill-rule="evenodd" clip-rule="evenodd" d="M176.276 31.7921V33.2875H174.61V37.3182C174.61 37.6967 174.673 37.9495 174.802 38.0752C174.93 38.1981 175.185 38.2623 175.57 38.2623C175.701 38.2623 175.822 38.2566 175.94 38.2466C176.058 38.2366 176.168 38.2209 176.276 38.1981V39.932C176.084 39.9634 175.871 39.9834 175.636 39.9949C175.4 40.0034 175.172 40.0091 174.945 40.0091C174.592 40.0091 174.261 39.9849 173.944 39.9392C173.626 39.892 173.35 39.7992 173.11 39.6635C172.87 39.5264 172.679 39.3336 172.538 39.0793C172.401 38.8308 172.332 38.4994 172.332 38.0909V33.2875H170.954V31.7921H172.332V29.3525H174.61V31.7921H176.276Z" fill="#656464"/>
</svg>
