<svg xmlns="http://www.w3.org/2000/svg" width="88" height="56" viewBox="0 0 88 56"><path d="M3.237 47.508C6.19 49.955 9.287 51.9 14.254 51.9c5.4 0 8.208-3.168 8.208-6.842 0-4.32-4.464-6.19-8.424-7.63C8.78 35.553 3.02 33.465 3.02 27.56c0-5.04 3.96-9.216 11.162-9.216 3.672 0 7.345 1.512 9.865 3.6l-1.73 2.233c-2.303-1.728-4.75-3.096-8.28-3.096-5.328 0-7.776 3.1-7.776 6.27 0 3.96 4.038 5.47 8.14 6.985 5.4 2.02 11.308 3.817 11.308 10.587 0 5.184-4.176 9.72-11.665 9.72-5.113 0-9.577-2.16-12.673-4.75l1.87-2.38z" opacity=".3"/><path fill="#F7C819" d="M3.237 46.508C6.19 48.955 9.287 50.9 14.254 50.9c5.4 0 8.208-3.168 8.208-6.842 0-4.32-4.464-6.19-8.424-7.63C8.78 34.553 3.02 32.465 3.02 26.56c0-5.04 3.96-9.216 11.162-9.216 3.672 0 7.345 1.512 9.865 3.6l-1.73 2.233c-2.303-1.728-4.75-3.096-8.28-3.096-5.328 0-7.776 3.1-7.776 6.27 0 3.96 4.038 5.47 8.14 6.985 5.4 2.02 11.308 3.817 11.308 10.587 0 5.184-4.176 9.72-11.665 9.72-5.113 0-9.577-2.16-12.673-4.75l1.87-2.38z"/><path fill="#666" d="M34.12 18.21h2.737l.288 5.328h.216c3.53-3.528 7.13-6.193 11.887-6.193 7.128 0 10.44 4.32 10.44 13.25V52.77H56.52V31.025c0-7.343-2.305-10.8-7.92-10.8-4.106 0-7.06 2.16-11.307 6.48V52.77h-3.17V18.21z"/><path fill="#999" d="M85.3 4.108c-1.44-.72-2.88-1.008-4.175-1.008-3.672 0-5.4 2.88-5.4 7.85v7.488h7.993v2.736h-7.993V53h-3.168V21.173h-4.752v-2.448l4.752-.288v-7.705c0-6.84 3.097-10.37 8.57-10.37 1.583 0 3.456.433 5.04 1.153L85.3 4.108z"/></svg>