<svg xmlns="http://www.w3.org/2000/svg" width="386" height="100" viewBox="0 0 386 100"><path d="M48.156 18.345c9.073 0 16.777 6.625 16.777 18.217 0 11.45-7.704 18.074-16.777 18.074-9.072 0-16.777-6.625-16.777-18.074-.01-11.592 7.7-18.217 16.77-18.217z" opacity=".3"/><path fill="#F7C819" d="M48.156 17.345c9.073 0 16.777 6.625 16.777 18.217 0 11.45-7.704 18.074-16.777 18.074-9.072 0-16.777-6.625-16.777-18.074-.01-11.592 7.7-18.217 16.77-18.217z"/><path d="M3.237 47.508C6.19 49.955 9.287 51.9 14.254 51.9c5.4 0 8.208-3.168 8.208-6.842 0-4.32-4.464-6.19-8.424-7.63C8.78 35.553 3.02 33.465 3.02 27.56c0-5.04 3.96-9.216 11.162-9.216 3.672 0 7.345 1.512 9.865 3.6l-1.73 2.233c-2.303-1.728-4.75-3.096-8.28-3.096-5.328 0-7.776 3.1-7.776 6.27 0 3.96 4.04 5.47 8.14 6.99 5.4 2.02 11.31 3.82 11.31 10.59 0 5.19-4.17 9.72-11.66 9.72-5.11 0-9.57-2.16-12.67-4.75l1.87-2.38z" opacity=".3"/><path fill="#F7C819" d="M3.237 46.508C6.19 48.955 9.287 50.9 14.254 50.9c5.4 0 8.208-3.168 8.208-6.842 0-4.32-4.464-6.19-8.424-7.63C8.78 34.553 3.02 32.465 3.02 26.56c0-5.04 3.96-9.216 11.162-9.216 3.672 0 7.345 1.512 9.865 3.6l-1.73 2.233c-2.303-1.728-4.75-3.096-8.28-3.096-5.328 0-7.776 3.1-7.776 6.27 0 3.96 4.04 5.47 8.14 6.99 5.4 2.02 11.31 3.82 11.31 10.59 0 5.19-4.17 9.72-11.66 9.72-5.11 0-9.57-2.16-12.67-4.75l1.87-2.38z"/><path d="M73.86 2h3.17v47.596c0 1.512.647 2.232 1.51 2.232.29 0 .577 0 1.297-.145l.576 2.592c-.648.217-1.296.36-2.304.36-2.81 0-4.25-1.728-4.25-5.472V2z" opacity=".3"/><path fill="#F7C819" d="M73.86 1h3.17v47.596c0 1.512.647 2.232 1.51 2.232.29 0 .577 0 1.297-.145l.576 2.592c-.648.217-1.296.36-2.304.36-2.81 0-4.25-1.728-4.25-5.472V1z"/><path d="M109.878 32.098c.144-5.255-1.368-10.944-8.137-10.944-4.68 0-8.71 2.304-11.01 4.032l-1.44-2.376c2.45-1.728 7.2-4.464 12.82-4.464 8.21 0 10.95 5.905 10.95 13.32v22.106h-2.66l-.36-4.463h-.14c-3.52 2.8-7.7 5.32-12.24 5.32-5.47 0-10.08-2.96-10.08-9.51 0-7.64 6.99-11.31 22.32-13.04zM98.14 51.9c3.96 0 7.49-1.945 11.738-5.617V34.547c-14.186 1.656-19.01 4.97-19.01 10.44 0 4.968 3.313 6.913 7.273 6.913z" opacity=".3"/><path fill="#F7C819" d="M109.878 31.098c.144-5.255-1.368-10.944-8.137-10.944-4.68 0-8.71 2.304-11.01 4.032l-1.44-2.376c2.45-1.728 7.2-4.464 12.82-4.464 8.21 0 10.95 5.905 10.95 13.32v22.106h-2.66l-.36-4.463h-.14c-3.52 2.8-7.7 5.32-12.24 5.32-5.47 0-10.08-2.96-10.08-9.51 0-7.64 6.99-11.31 22.32-13.04zM98.14 50.9c3.96 0 7.49-1.945 11.738-5.617V33.547c-14.186 1.656-19.01 4.97-19.01 10.44 0 4.968 3.313 6.913 7.273 6.913z"/><path d="M124.938 19.21h2.736l.288 6.408h.216c2.304-4.25 5.688-7.273 9.793-7.273 1.3 0 2.31.144 3.46.72l-.72 2.88c-1.15-.432-1.8-.576-3.17-.576-3.09 0-6.77 2.37-9.43 8.85v23.55h-3.17V19.21z" opacity=".3"/><path fill="#F7C819" d="M124.938 18.21h2.736l.288 6.408h.216c2.304-4.25 5.688-7.273 9.793-7.273 1.3 0 2.31.144 3.46.72l-.72 2.88c-1.15-.432-1.8-.576-3.17-.576-3.09 0-6.77 2.37-9.43 8.85v23.55h-3.17V18.21z"/><path d="M148.748 18.21h2.736l.288 5.328h.216c3.528-3.528 7.13-6.193 11.88-6.193 7.13 0 10.442 4.32 10.442 13.25V52.77h-3.168V31.025c0-7.343-2.304-10.8-7.92-10.8-4.105 0-7.058 2.16-11.306 6.48V52.77h-3.168V18.21zm50.458-.865c8.21 0 13.25 5.833 13.25 15.985 0 .865 0 1.73-.144 2.592h-24.915c.144 8.713 5.257 14.98 13.033 14.98 3.745 0 6.697-1.226 9.29-3.097l1.295 2.447c-2.736 1.656-5.833 3.385-10.873 3.385-8.856 0-15.985-6.77-15.985-18.074s7.344-18.218 15.05-18.218zm10.225 16.13c0-8.856-3.96-13.393-10.15-13.393-5.9 0-11.16 5.112-11.88 13.393h22.04zm13.33-12.53h-5.4V18.5l5.48-.288.43-10.01H226v10.01h10.01v2.736H226v22.54c0 4.39 1.08 7.343 5.833 7.343 1.295 0 3.096-.5 4.32-1.08l.863 2.59c-2.016.72-4.176 1.3-5.616 1.3-6.697 0-8.64-4.25-8.64-10.44V20.95zm19.31-2.735h3.46l6.19 22.393c.87 3.168 1.66 6.12 2.38 9.217h.29c.8-3.096 1.66-6.05 2.53-9.217l6.27-22.394H267l6.26 22.39c.866 3.16 1.73 6.12 2.59 9.21h.29c.79-3.1 1.66-6.05 2.45-9.22l6.12-22.4h3.24L278 52.75h-4.172l-6.05-21.453c-1.01-3.318-1.656-6.48-2.665-9.87h-.29c-.79 3.38-1.655 6.694-2.735 10.01l-5.98 21.32h-3.816L242.06 18.21zm66.47-.865c8.36 0 15.56 6.625 15.56 18.217 0 11.45-7.2 18.074-15.55 18.074-8.28 0-15.48-6.625-15.48-18.074 0-11.592 7.2-18.217 15.48-18.217zm0 33.483c6.99 0 12.24-6.193 12.24-15.266 0-9.145-5.25-15.41-12.24-15.41-6.98 0-12.17 6.265-12.17 15.41 0 9.073 5.19 15.266 12.17 15.266zm25.74-32.618h2.74l.29 6.408h.22c2.31-4.25 5.69-7.273 9.79-7.273 1.3 0 2.31.144 3.46.72l-.72 2.88c-1.15-.432-1.8-.576-3.17-.576-3.09 0-6.77 2.37-9.43 8.85v23.55h-3.17V18.21zM358.08 1h3.17v38.162h.14l17.06-20.952h3.67l-11.23 13.68L384 52.77h-3.53l-11.448-18.503-7.775 9.072v9.43h-3.168V1z" fill="#666"/><path d="M157.247 64.69c-.96-.48-1.92-.67-2.784-.67-2.448 0-3.6 1.92-3.6 5.23v4.993h5.328v1.824h-5.32v21.218h-2.11V76.068h-3.16v-1.632l3.17-.192v-5.137c0-4.56 2.07-6.912 5.72-6.912 1.06 0 2.31.288 3.36.768l-.57 1.728zm15.157 8.978c5.57 0 10.37 4.417 10.37 12.146 0 7.633-4.8 12.05-10.37 12.05-5.52 0-10.32-4.417-10.32-12.05 0-7.73 4.8-12.146 10.32-12.146zm0 22.322c4.657 0 8.16-4.13 8.16-10.177 0-6.097-3.503-10.273-8.16-10.273-4.656 0-8.112 4.177-8.112 10.273 0 6.048 3.456 10.177 8.112 10.177zm20.284-21.746h2.112V88.74c0 4.897 1.536 7.202 5.232 7.202 2.736 0 4.752-1.44 7.44-4.705V74.244h2.113v23.042h-1.776l-.24-3.84h-.1c-2.26 2.64-4.66 4.416-7.83 4.416-4.75 0-6.96-2.88-6.96-8.833V74.24zm28.526 0h1.824l.192 3.553h.144c2.352-2.353 4.752-4.13 7.92-4.13 4.752 0 6.96 2.88 6.96 8.834v14.79h-2.11v-14.5c0-4.89-1.537-7.2-5.28-7.2-2.737 0-4.706 1.44-7.538 4.32v17.38h-2.112V74.25zm37.182-.576c2.784 0 4.656 1.057 6.96 2.832l-.096-4.224V62.77h2.112v34.516h-1.824l-.192-2.977h-.144c-1.872 1.87-4.417 3.55-7.49 3.55-5.807 0-9.552-4.27-9.552-12.05 0-7.44 4.753-12.15 10.226-12.15zm-.385 22.322c2.55 0 4.81-1.345 7.25-3.793v-13.68c-2.44-2.16-4.46-2.977-6.72-2.977-4.61 0-8.11 4.465-8.11 10.273 0 6.096 2.69 10.177 7.59 10.177zm34.34-13.153c.1-3.504-.91-7.297-5.42-7.297-3.12 0-5.81 1.536-7.34 2.688l-.96-1.584c1.63-1.152 4.8-2.977 8.55-2.977 5.48 0 7.3 3.937 7.3 8.88v14.738h-1.78l-.24-2.977h-.09c-2.35 1.872-5.13 3.553-8.16 3.553-3.64 0-6.72-1.96-6.72-6.33 0-5.08 4.66-7.53 14.88-8.68zm-7.82 13.2c2.64 0 5-1.295 7.83-3.743V84.47c-9.45 1.103-12.67 3.31-12.67 6.96 0 3.312 2.21 4.608 4.85 4.608zm21.57-19.97h-3.6v-1.63l3.65-.193.29-6.673h1.83v6.68h6.68v1.83h-6.67V91.1c0 2.927.72 4.895 3.89 4.895.87 0 2.07-.336 2.88-.72l.58 1.73c-1.34.48-2.78.862-3.74.862-4.46 0-5.76-2.83-5.76-6.96V76.07zm17.24-9.263c0-1.2.87-1.92 1.92-1.92s1.92.72 1.92 1.92c0 1.104-.86 1.872-1.92 1.872s-1.92-.77-1.92-1.872zm.82 7.44h2.11v23.042h-2.11V74.244zm22.38-.576c5.57 0 10.37 4.417 10.37 12.146 0 7.633-4.8 12.05-10.37 12.05-5.52 0-10.32-4.417-10.32-12.05 0-7.73 4.8-12.146 10.32-12.146zm0 22.322c4.66 0 8.16-4.13 8.16-10.177 0-6.097-3.5-10.273-8.16-10.273-4.65 0-8.11 4.177-8.11 10.273 0 6.048 3.46 10.177 8.11 10.177zm20.52-21.746h1.83l.19 3.553h.15c2.356-2.353 4.756-4.13 7.92-4.13 4.756 0 6.96 2.88 6.96 8.834v14.79H382v-14.5c0-4.89-1.536-7.2-5.28-7.2-2.736 0-4.705 1.44-7.54 4.32v17.38h-2.11V74.25z" fill="#999"/></svg>