<svg xmlns="http://www.w3.org/2000/svg" width="386" height="100" xml:space="preserve"><path d="M148.748 18.209h2.736l.288 5.33h.216c3.529-3.529 7.129-6.193 11.882-6.193 7.128 0 10.44 4.32 10.44 13.248v22.178h-3.168V31.025c0-7.343-2.304-10.8-7.921-10.8-4.104 0-7.056 2.16-11.305 6.481v26.064h-3.168V18.209zM199.206 17.346c8.209 0 13.249 5.832 13.249 15.984 0 .865 0 1.729-.144 2.592h-24.915c.144 8.713 5.257 14.979 13.034 14.979 3.744 0 6.696-1.225 9.288-3.096l1.297 2.447c-2.736 1.656-5.833 3.385-10.873 3.385-8.857 0-15.986-6.77-15.986-18.074S191.501 17.346 199.206 17.346M209.432 33.475c0-8.855-3.962-13.393-10.153-13.393-5.905 0-11.161 5.111-11.881 13.393H209.432zM222.755 20.945h-5.4v-2.447l5.473-.288.432-10.009h2.736V18.21h10.009v2.735h-10.009v22.539c0 4.391 1.08 7.344 5.833 7.344 1.296 0 3.096-.504 4.319-1.08l.864 2.592c-2.016.721-4.176 1.297-5.616 1.297-6.696 0-8.641-4.248-8.641-10.441V20.945zM242.058 18.209h3.457l6.192 22.395c.863 3.168 1.655 6.121 2.376 9.217h.287c.792-3.096 1.656-6.049 2.521-9.217l6.265-22.395h3.816l6.265 22.395c.864 3.168 1.729 6.121 2.592 9.217h.288c.792-3.096 1.656-6.049 2.448-9.217l6.121-22.395h3.24l-9.938 34.562h-4.176l-6.048-21.457c-1.009-3.312-1.657-6.48-2.665-9.865h-.288c-.792 3.385-1.656 6.697-2.736 10.01L256.1 52.771h-3.817L242.058 18.209zM308.522 17.346c8.353 0 15.553 6.625 15.553 18.217 0 11.449-7.2 18.074-15.553 18.074-8.281 0-15.482-6.625-15.482-18.074C293.04 23.971 300.241 17.346 308.522 17.346M308.522 50.828c6.985 0 12.241-6.193 12.241-15.266 0-9.145-5.256-15.408-12.241-15.408-6.984 0-12.169 6.264-12.169 15.408C296.354 44.635 301.538 50.828 308.522 50.828M334.268 18.209h2.736l.287 6.41h.217c2.305-4.25 5.689-7.273 9.793-7.273 1.297 0 2.305.145 3.457.72l-.721 2.88c-1.152-.432-1.801-.576-3.168-.576-3.096 0-6.77 2.377-9.434 8.857v23.545h-3.168V18.209zM358.078 1 361.246 1 361.246 39.162 361.389 39.162 378.455 18.21 382.127 18.21 370.895 31.891 384 52.771 380.471 52.771 369.021 34.268 361.246 43.34 361.246 52.771 358.078 52.771zM157.247 64.691c-.96-.48-1.92-.672-2.784-.672-2.448 0-3.6 1.92-3.6 5.232v4.992h5.328v1.824h-5.328v21.218h-2.113V76.068h-3.168v-1.632l3.168-.192v-5.137c0-4.56 2.064-6.912 5.713-6.912 1.056 0 2.304.288 3.36.768L157.247 64.691zM172.404 73.668c5.569 0 10.369 4.417 10.369 12.146 0 7.633-4.8 12.049-10.369 12.049-5.52 0-10.321-4.416-10.321-12.049C162.083 78.085 166.884 73.668 172.404 73.668M172.404 95.99c4.657 0 8.161-4.129 8.161-10.177 0-6.097-3.504-10.273-8.161-10.273-4.656 0-8.112 4.177-8.112 10.273C164.292 91.861 167.748 95.99 172.404 95.99M192.688 74.244h2.112v14.497c0 4.896 1.536 7.201 5.232 7.201 2.736 0 4.753-1.44 7.44-4.705V74.244h2.112v23.042h-1.776l-.239-3.84h-.097c-2.256 2.64-4.655 4.416-7.824 4.416-4.752 0-6.96-2.881-6.96-8.833V74.244zM221.214 74.244h1.824l.191 3.553h.145c2.352-2.353 4.753-4.129 7.92-4.129 4.753 0 6.961 2.88 6.961 8.833v14.785h-2.112V82.789c0-4.896-1.536-7.201-5.279-7.201-2.736 0-4.705 1.44-7.537 4.32v17.378h-2.112V74.244zM258.396 73.668c2.784 0 4.656 1.057 6.961 2.832l-.097-4.224v-9.505h2.112v34.515h-1.824l-.191-2.977h-.145c-1.872 1.872-4.417 3.553-7.488 3.553-5.809 0-9.554-4.272-9.554-12.049C248.17 78.372 252.923 73.668 258.396 73.668M258.011 95.99c2.544 0 4.802-1.345 7.249-3.793V78.517c-2.447-2.16-4.465-2.977-6.721-2.977-4.607 0-8.112 4.465-8.112 10.273C250.427 91.909 253.115 95.99 258.011 95.99M292.351 82.837c.097-3.504-.912-7.297-5.425-7.297-3.12 0-5.808 1.536-7.344 2.688l-.96-1.584c1.632-1.152 4.8-2.977 8.544-2.977 5.473 0 7.297 3.937 7.297 8.881v14.737h-1.776l-.239-2.977h-.097c-2.352 1.871-5.136 3.553-8.161 3.553-3.647 0-6.721-1.969-6.721-6.337C277.469 86.438 282.126 83.989 292.351 82.837M284.526 96.038c2.64 0 4.992-1.296 7.824-3.744v-7.825c-9.457 1.104-12.673 3.312-12.673 6.961C279.678 94.742 281.886 96.038 284.526 96.038M306.092 76.068h-3.601v-1.632l3.648-.192.288-6.673h1.823v6.673h6.673v1.824h-6.673v15.025c0 2.928.721 4.896 3.89 4.896.863 0 2.063-.336 2.88-.721l.576 1.729c-1.345.48-2.784.864-3.744.864-4.465 0-5.761-2.832-5.761-6.961V76.068zM323.323 66.804c0-1.2.864-1.92 1.92-1.92s1.92.72 1.92 1.92c0 1.104-.864 1.872-1.92 1.872S323.323 67.907 323.323 66.804M324.139 74.244h2.112v23.042h-2.112V74.244zM346.521 73.668c5.569 0 10.369 4.417 10.369 12.146 0 7.633-4.8 12.049-10.369 12.049-5.52 0-10.321-4.416-10.321-12.049C336.2 78.085 341.002 73.668 346.521 73.668M346.521 95.99c4.657 0 8.161-4.129 8.161-10.177 0-6.097-3.504-10.273-8.161-10.273-4.656 0-8.112 4.177-8.112 10.273C338.409 91.861 341.865 95.99 346.521 95.99M367.04 74.244h1.824l.192 3.553h.144c2.353-2.353 4.753-4.129 7.921-4.129 4.752 0 6.961 2.88 6.961 8.833v14.785h-2.112V82.789c0-4.896-1.536-7.201-5.28-7.201-2.736 0-4.705 1.44-7.537 4.32v17.378h-2.112V74.244z"/><path fill="#F7C819" d="M48.156,52.387c-9.142,0-15.527-6.918-15.527-16.824c0-9.99,6.385-16.968,15.527-16.968 s15.527,6.978,15.527,16.968C63.683,45.469,57.298,52.387,48.156,52.387"/><path d="M48.156 19.846c7.107 0 14.277 4.859 14.277 15.717 0 10.759-7.17 15.573-14.277 15.573s-14.277-4.814-14.277-15.573C33.879 24.705 41.049 19.846 48.156 19.846M48.156 17.346c-9.072 0-16.777 6.625-16.777 18.217 0 11.449 7.705 18.073 16.777 18.073 9.073 0 16.777-6.624 16.777-18.073C64.933 23.971 57.229 17.346 48.156 17.346M3.237 46.508C6.189 48.955 9.286 50.9 14.254 50.9c5.4 0 8.209-3.168 8.209-6.842 0-4.32-4.465-6.191-8.425-7.631-5.257-1.873-11.017-3.961-11.017-9.865 0-5.041 3.961-9.218 11.161-9.218 3.672 0 7.345 1.513 9.865 3.601l-1.729 2.232c-2.304-1.729-4.752-3.096-8.28-3.096-5.328 0-7.777 3.096-7.777 6.264 0 3.961 4.033 5.473 8.137 6.984 5.4 2.018 11.305 3.816 11.305 10.586 0 5.184-4.176 9.721-11.665 9.721-5.113 0-9.577-2.16-12.673-4.752L3.237 46.508zM73.861 1h3.169v47.596c0 1.512.647 2.232 1.512 2.232.287 0 .575 0 1.296-.145l.576 2.592c-.648.217-1.297.361-2.304.361-2.809 0-4.249-1.729-4.249-5.473V1zM109.877 31.098c.144-5.256-1.368-10.944-8.136-10.944-4.681 0-8.713 2.306-11.018 4.033l-1.439-2.377c2.448-1.728 7.2-4.464 12.816-4.464 8.209 0 10.945 5.904 10.945 13.32v22.105h-2.664l-.36-4.463h-.144c-3.528 2.807-7.704 5.328-12.241 5.328-5.473 0-10.081-2.953-10.081-9.506C87.556 36.498 94.541 32.826 109.877 31.098M98.141 50.9c3.96 0 7.489-1.945 11.737-5.617V33.547c-14.185 1.656-19.009 4.969-19.009 10.441C90.869 48.955 94.181 50.9 98.141 50.9M124.938 18.209h2.736l.288 6.41h.216c2.304-4.25 5.689-7.273 9.793-7.273 1.296 0 2.304.145 3.456.72l-.72 2.88c-1.152-.432-1.8-.576-3.168-.576-3.096 0-6.769 2.377-9.433 8.857v23.545h-3.168V18.209z"/></svg>